<svg width="14" height="14" viewBox="0 0 14 14" fill="none" xmlns="http://www.w3.org/2000/svg">
<path fill-rule="evenodd" clip-rule="evenodd" d="M7.00061 0.554199C5.26245 0.554199 5.04432 0.561799 4.36165 0.592866C3.68031 0.624067 3.21523 0.731934 2.8083 0.890203C2.38736 1.05367 2.03029 1.27234 1.67455 1.62821C1.31855 1.98395 1.09988 2.34102 0.935876 2.76182C0.777208 3.16889 0.669207 3.6341 0.63854 4.31517C0.608006 4.99785 0.600006 5.21611 0.600006 6.95427C0.600006 8.69242 0.60774 8.90989 0.638673 9.59256C0.670007 10.2739 0.777875 10.739 0.93601 11.1459C1.09961 11.5668 1.31828 11.9239 1.67415 12.2797C2.02975 12.6357 2.38682 12.8549 2.8075 13.0183C3.2147 13.1766 3.6799 13.2845 4.36111 13.3157C5.04379 13.3467 5.26179 13.3543 6.99981 13.3543C8.73809 13.3543 8.95556 13.3467 9.63823 13.3157C10.3196 13.2845 10.7852 13.1766 11.1924 13.0183C11.6132 12.8549 11.9697 12.6357 12.3253 12.2797C12.6813 11.9239 12.9 11.5668 13.064 11.146C13.2213 10.739 13.3293 10.2738 13.3613 9.59269C13.392 8.91002 13.4 8.69242 13.4 6.95427C13.4 5.21611 13.392 4.99798 13.3613 4.3153C13.3293 3.63396 13.2213 3.16889 13.064 2.76196C12.9 2.34102 12.6813 1.98395 12.3253 1.62821C11.9693 1.27221 11.6133 1.05354 11.192 0.890203C10.784 0.731934 10.3186 0.624067 9.6373 0.592866C8.95463 0.561799 8.73729 0.554199 6.99861 0.554199H7.00061ZM6.42644 1.70753C6.59684 1.70726 6.78698 1.70753 7.00058 1.70753C8.7094 1.70753 8.91193 1.71366 9.58674 1.74433C10.2107 1.77286 10.5494 1.87713 10.775 1.96473C11.0737 2.08073 11.2866 2.2194 11.5105 2.4434C11.7345 2.6674 11.8732 2.88074 11.9894 3.17941C12.077 3.40474 12.1814 3.74341 12.2098 4.36742C12.2405 5.04209 12.2472 5.24476 12.2472 6.95278C12.2472 8.6608 12.2405 8.86347 12.2098 9.53814C12.1813 10.1621 12.077 10.5008 11.9894 10.7262C11.8734 11.0248 11.7345 11.2375 11.5105 11.4614C11.2865 11.6854 11.0738 11.824 10.775 11.94C10.5497 12.028 10.2107 12.132 9.58674 12.1606C8.91207 12.1912 8.7094 12.1979 7.00058 12.1979C5.29163 12.1979 5.08909 12.1912 4.41442 12.1606C3.79041 12.1318 3.45174 12.0275 3.22601 11.9399C2.92734 11.8239 2.714 11.6852 2.49 11.4612C2.266 11.2372 2.12733 11.0244 2.01106 10.7256C1.92346 10.5003 1.81906 10.1616 1.79066 9.53761C1.75999 8.86294 1.75386 8.66027 1.75386 6.95118C1.75386 5.2421 1.75999 5.04049 1.79066 4.36582C1.81919 3.74181 1.92346 3.40314 2.01106 3.17754C2.12706 2.87887 2.266 2.66554 2.49 2.44153C2.714 2.21753 2.92734 2.07886 3.22601 1.9626C3.45161 1.87459 3.79041 1.77059 4.41442 1.74193C5.00482 1.71526 5.23363 1.70726 6.42644 1.70593V1.70753ZM10.4169 2.77021C9.99288 2.77021 9.64888 3.11381 9.64888 3.53795C9.64888 3.96195 9.99288 4.30596 10.4169 4.30596C10.8409 4.30596 11.1849 3.96195 11.1849 3.53795C11.1849 3.11394 10.8409 2.77021 10.4169 2.77021ZM7.00062 3.66755C5.18553 3.66755 3.71392 5.13916 3.71392 6.95425C3.71392 8.76933 5.18553 10.2403 7.00062 10.2403C8.8157 10.2403 10.2868 8.76933 10.2868 6.95425C10.2868 5.13916 8.8157 3.66755 7.00062 3.66755ZM7.00059 4.82089C8.17874 4.82089 9.13395 5.77597 9.13395 6.95425C9.13395 8.13239 8.17874 9.0876 7.00059 9.0876C5.82231 9.0876 4.86724 8.13239 4.86724 6.95425C4.86724 5.77597 5.82231 4.82089 7.00059 4.82089Z" fill="white"/>
</svg>
