<svg width="18" height="21" viewBox="0 0 18 21" fill="none" xmlns="http://www.w3.org/2000/svg">
<path fill-rule="evenodd" clip-rule="evenodd" d="M9.03 0.954122C11.29 0.964122 13.45 1.86412 15.03 3.44412C16.62 5.03412 17.51 7.18412 17.5 9.41412V9.46412C17.44 12.4941 15.74 15.2841 13.62 17.4641C12.42 18.6941 11.09 19.7841 9.64 20.7041C9.25 21.0341 8.68 21.0341 8.29 20.7041C6.14 19.3041 4.24 17.5441 2.7 15.4941C1.35 13.7141 0.58 11.5741 0.5 9.34412C0.52 4.69412 4.34 0.944122 9.03 0.954122ZM9.03 12.2141C9.74 12.2141 10.42 11.9441 10.92 11.4541C11.44 10.9441 11.731 10.2651 11.731 9.55412C11.731 8.07412 10.52 6.88412 9.03 6.88412C7.54 6.88412 6.34 8.07412 6.34 9.55412C6.34 11.0151 7.52 12.1941 9 12.2141H9.03Z" fill="#D6B1FF"/>
</svg>
