<svg width="20" height="19" viewBox="0 0 20 19" fill="none" xmlns="http://www.w3.org/2000/svg">
<path fill-rule="evenodd" clip-rule="evenodd" d="M14.9394 0.954102C16.2804 0.954102 17.5704 1.4841 18.5194 2.4351C19.4694 3.3841 20.0004 4.6641 20.0004 6.0041V13.9041C20.0004 16.6941 17.7304 18.9541 14.9394 18.9541H5.0604C2.2694 18.9541 0.000396729 16.6941 0.000396729 13.9041V6.0041C0.000396729 3.2141 2.2594 0.954102 5.0604 0.954102H14.9394ZM16.5304 7.4941L16.6104 7.4141C16.8494 7.1241 16.8494 6.7041 16.5994 6.4141C16.4604 6.2651 16.2694 6.1741 16.0704 6.1541C15.8604 6.1431 15.6604 6.2141 15.5094 6.3541L11.0004 9.9541C10.4204 10.4351 9.5894 10.4351 9.0004 9.9541L4.5004 6.3541C4.1894 6.1241 3.7594 6.1541 3.5004 6.4241C3.2304 6.6941 3.2004 7.1241 3.4294 7.4241L3.5604 7.5541L8.1104 11.1041C8.6704 11.5441 9.3494 11.7841 10.0604 11.7841C10.7694 11.7841 11.4604 11.5441 12.0194 11.1041L16.5304 7.4941Z" fill="#D6B1FF"/>
</svg>
