<svg width="14" height="21" viewBox="0 0 14 21" fill="none" xmlns="http://www.w3.org/2000/svg">
<path fill-rule="evenodd" clip-rule="evenodd" d="M0.00845931 9.6489C0.00845931 9.03026 0.015909 8.41161 0.0233933 7.7901L0.0233934 7.79009C0.0271878 7.47499 0.030991 7.15917 0.0338368 6.84223C0.0338368 3.43693 2.16556 0.954102 5.10936 0.954102H8.89063C11.8344 0.954102 13.9662 3.43693 13.9662 6.84223C13.9915 8.20631 14 9.57039 14 10.9443C14 12.3182 13.9915 13.7019 13.9662 15.066C13.9662 18.4713 11.8344 20.9541 8.89063 20.9541H5.10936C2.16556 20.9541 0.0338368 18.4713 0.0338368 15.0562C0.0169184 13.7706 0 12.4556 0 11.1209L0.00845931 9.6489ZM8.28 18.5943V18.7543C8.28 19.4279 7.7168 19.9543 7 19.9543C6.30027 19.9543 5.72 19.4279 5.72 18.7543V18.5943C5.72 17.9383 6.30027 17.3943 7 17.3943C7.7168 17.3943 8.28 17.9383 8.28 18.5943ZM2.01671 7.39775C2.01136 7.80173 2.00604 8.20385 2.00604 8.60596L2 9.56279C2 10.4303 2.01208 11.2851 2.02417 12.1207C2.02417 14.3405 3.54683 15.9543 5.64955 15.9543H8.35045C10.4532 15.9543 11.9758 14.3405 11.9758 12.1271C11.994 11.2404 12 10.341 12 9.44797C12 8.55493 11.994 7.66828 11.9758 6.78163C11.9758 4.56818 10.4532 2.95435 8.35045 2.95435H5.64955C3.54683 2.95435 2.02417 4.56818 2.02417 6.78163C2.02214 6.98764 2.01942 7.19293 2.01671 7.39775Z" fill="#D6B1FF"/>
</svg>
