<svg width="12" height="10" viewBox="0 0 12 10" fill="none" xmlns="http://www.w3.org/2000/svg">
<path fill-rule="evenodd" clip-rule="evenodd" d="M5.6406 2.70805L5.66578 3.12327L5.2461 3.07243C3.71843 2.87753 2.38383 2.21655 1.25067 1.10646L0.696681 0.555646L0.553988 0.962399C0.251813 1.86912 0.444869 2.82668 1.0744 3.47071C1.41015 3.82662 1.33461 3.87746 0.755438 3.66561C0.553988 3.59782 0.377719 3.54698 0.360931 3.5724C0.302175 3.63172 0.503625 4.40285 0.663106 4.70792C0.881344 5.13162 1.32621 5.54684 1.81305 5.79259L2.22434 5.98749L1.73751 5.99597C1.26746 5.99597 1.25067 6.00444 1.30103 6.1824C1.46891 6.73321 2.13201 7.31792 2.87066 7.57214L3.39108 7.75009L2.93781 8.02126C2.26631 8.41106 1.4773 8.63139 0.688288 8.64834C0.310569 8.65681 0 8.69071 0 8.71613C0 8.80087 1.02404 9.27541 1.61999 9.46184C3.40786 10.0127 5.53148 9.77538 7.1263 8.83477C8.25945 8.16532 9.39261 6.8349 9.92142 5.54684C10.2068 4.86045 10.4922 3.60629 10.4922 3.00464C10.4922 2.61483 10.5174 2.56399 10.9874 2.09792C11.2644 1.82675 11.5246 1.53016 11.575 1.44542C11.6589 1.28441 11.6505 1.28441 11.2224 1.42847C10.509 1.68269 10.4083 1.64879 10.7608 1.26746C11.021 0.996295 11.3316 0.504801 11.3316 0.360743C11.3316 0.335321 11.2057 0.377691 11.063 0.453957C10.9119 0.538698 10.5761 0.665808 10.3243 0.742074L9.87105 0.886132L9.45976 0.60649C9.23313 0.453957 8.91417 0.284477 8.74629 0.233633C8.31821 0.114996 7.6635 0.131945 7.27738 0.267529C6.22816 0.64886 5.56506 1.63185 5.6406 2.70805Z" fill="white"/>
</svg>
