<svg width="14" height="14" viewBox="0 0 14 14" fill="none" xmlns="http://www.w3.org/2000/svg">
<path fill-rule="evenodd" clip-rule="evenodd" d="M13.4 6.94533C13.4 7.37815 13.3559 7.81036 13.2694 8.23168C13.185 8.64298 13.06 9.04679 12.8962 9.4328C12.7363 9.81199 12.5378 10.1774 12.3059 10.5182C12.0775 10.8568 11.8143 11.1745 11.5252 11.464C11.2355 11.7524 10.9168 12.0148 10.5783 12.2442C10.2364 12.4745 9.8705 12.6727 9.49109 12.8334C9.10452 12.9963 8.69978 13.1211 8.28883 13.2054C7.86696 13.2921 7.43316 13.3364 6.99972 13.3364C6.56595 13.3364 6.13218 13.2921 5.71091 13.2054C5.29933 13.1211 4.89462 12.9963 4.50835 12.8334C4.12896 12.6727 3.76267 12.4745 3.42079 12.2442C3.08234 12.0148 2.76357 11.7524 2.47449 11.464C2.18511 11.1745 1.92196 10.8568 1.6932 10.5182C1.46256 10.1774 1.26379 9.81197 1.10317 9.4328C0.939387 9.04679 0.814086 8.64296 0.729391 8.23168C0.643769 7.81036 0.600006 7.37815 0.600006 6.94533C0.600006 6.51218 0.643744 6.07904 0.729416 5.65865C0.814111 5.24734 0.939412 4.84292 1.10319 4.45752C1.26381 4.07806 1.46259 3.71233 1.69322 3.37154C1.92198 3.03265 2.18514 2.71557 2.47452 2.42565C2.7636 2.13729 3.08236 1.87549 3.42081 1.64644C3.7627 1.41518 4.12898 1.21705 4.50837 1.05601C4.89465 0.892765 5.29933 0.767645 5.71093 0.684022C6.1322 0.597899 6.56597 0.554199 6.99974 0.554199C7.43319 0.554199 7.86696 0.597899 8.28885 0.684022C8.6998 0.76767 9.10452 0.89279 9.49112 1.05601C9.8705 1.21702 10.2365 1.41518 10.5783 1.64644C10.9168 1.87549 11.2356 2.13729 11.5253 2.42565C11.8144 2.71557 12.0775 3.03265 12.3059 3.37154C12.5378 3.71233 12.7363 4.07809 12.8962 4.45752C13.06 4.84292 13.185 5.24734 13.2694 5.65865C13.3559 6.07904 13.4 6.51218 13.4 6.94533ZM4.6677 2.00873C3.14354 2.72744 2.00598 4.12985 1.65127 5.82001C1.79536 5.82126 4.07298 5.84997 6.69717 5.15373C5.75119 3.47544 4.74052 2.10581 4.6677 2.00873ZM7.15 5.99416C4.3358 6.83546 1.63534 6.77492 1.53847 6.7712C1.53689 6.82986 1.53408 6.88664 1.53408 6.94532C1.53408 8.34741 2.06379 9.62563 2.93447 10.5921C2.93259 10.5893 4.42831 7.93956 7.37783 6.98714C7.44907 6.96343 7.52159 6.94219 7.59346 6.92161C7.45629 6.61143 7.30656 6.30061 7.15 5.99416ZM10.6093 2.84914C9.64701 2.00186 8.38353 1.48792 6.9997 1.48792C6.55561 1.48792 6.12464 1.5416 5.71182 1.64083C5.79368 1.75069 6.82031 3.11066 7.75504 4.8245C9.81735 4.05247 10.5958 2.8691 10.6093 2.84914ZM7.96602 7.82597C7.95385 7.83 7.94168 7.83348 7.92978 7.83783C4.70498 8.96042 3.65187 11.2228 3.64048 11.2475C4.56836 11.968 5.73217 12.4027 6.99974 12.4027C7.75663 12.4027 8.4776 12.2488 9.13357 11.9702C9.05263 11.4934 8.73512 9.82195 7.96602 7.82597ZM10.0539 11.4715C11.2812 10.6446 12.1528 9.3314 12.3959 7.81034C12.2834 7.77414 10.7543 7.29075 8.99009 7.57318C9.707 9.54046 9.99829 11.1426 10.0539 11.4715ZM8.17573 5.63776C8.30259 5.89803 8.42543 6.16293 8.53886 6.42915C8.57919 6.52466 8.61857 6.61829 8.657 6.71189C10.5346 6.47596 12.3844 6.8729 12.4635 6.88911C12.451 5.59531 11.9875 4.40789 11.2206 3.47827C11.2103 3.4929 10.3337 4.75771 8.17573 5.63776Z" fill="white"/>
</svg>
