<svg width="14" height="10" viewBox="0 0 14 10" fill="none" xmlns="http://www.w3.org/2000/svg">
<path fill-rule="evenodd" clip-rule="evenodd" d="M12.0008 0.828864C12.5516 0.979996 12.9853 1.42531 13.1325 1.99081C13.4 3.01572 13.4 5.1542 13.4 5.1542C13.4 5.1542 13.4 7.29261 13.1325 8.31759C12.9853 8.88309 12.5516 9.3284 12.0008 9.47961C11.0027 9.7542 7.00001 9.7542 7.00001 9.7542C7.00001 9.7542 2.99732 9.7542 1.99913 9.47961C1.44837 9.3284 1.01462 8.88309 0.867424 8.31759C0.600006 7.29261 0.600006 5.1542 0.600006 5.1542C0.600006 5.1542 0.600006 3.01572 0.867424 1.99081C1.01462 1.42531 1.44837 0.979996 1.99913 0.828864C2.99732 0.554199 7.00001 0.554199 7.00001 0.554199C7.00001 0.554199 11.0027 0.554199 12.0008 0.828864ZM5.80002 3.35416V7.35416L9.00002 5.35423L5.80002 3.35416Z" fill="white"/>
</svg>
